<svg width="149" height="149" viewBox="0 0 149 149" fill="none" xmlns="http://www.w3.org/2000/svg">
<path d="M49.6663 136.583C53.0951 136.583 55.8747 133.804 55.8747 130.375C55.8747 126.946 53.0951 124.167 49.6663 124.167C46.2376 124.167 43.458 126.946 43.458 130.375C43.458 133.804 46.2376 136.583 49.6663 136.583Z" stroke="#F97316" stroke-width="8" stroke-linecap="round" stroke-linejoin="round"/>
<path d="M117.958 136.583C121.387 136.583 124.167 133.804 124.167 130.375C124.167 126.946 121.387 124.167 117.958 124.167C114.53 124.167 111.75 126.946 111.75 130.375C111.75 133.804 114.53 136.583 117.958 136.583Z" stroke="#F97316" stroke-width="8" stroke-linecap="round" stroke-linejoin="round"/>
<path d="M12.7256 12.7271H25.1423L41.6564 89.8346C42.2622 92.6585 43.8335 95.1829 46.0998 96.9733C48.3661 98.7637 51.1856 99.708 54.0731 99.6438H114.791C117.616 99.6392 120.356 98.6709 122.557 96.8987C124.758 95.1265 126.289 92.6565 126.897 89.8967L137.141 43.7688H31.7852" stroke="#F97316" stroke-width="8" stroke-linecap="round" stroke-linejoin="round"/>
<circle cx="67.9187" cy="61.6007" r="4.73852" fill="#030303"/>
<circle cx="67.9187" cy="61.6007" r="4.73852" fill="#030303"/>
<circle cx="67.9187" cy="61.6007" r="4.73852" fill="#030303"/>
<circle cx="100.562" cy="61.6007" r="4.73852" fill="#030303"/>
<circle cx="100.562" cy="61.6007" r="4.73852" fill="#030303"/>
<circle cx="100.562" cy="61.6007" r="4.73852" fill="#030303"/>
<path d="M65.5493 82.1343C82.3974 71.8675 88.7154 72.1308 104.774 82.1343" stroke="black" stroke-width="2.10601" stroke-linecap="round"/>
</svg>
