<svg width="24" height="24" xmlns="http://www.w3.org/2000/svg"><g fill-rule="nonzero" fill="none"><path d="M22.4 14.743h-3.486v-8.4H22.4c.857 0 1.486.686 1.486 1.486V13.2c0 .857-.686 1.543-1.486 1.543zm-20.171 0H4.97L5.543 6.4H2.229C1.314 6.4.57 7.029.57 7.771v5.6c0 .743.743 1.372 1.658 1.372z" fill="#858585"/><path d="M18.857 20.343H15.03c-.572 0-1.086-.514-1.086-1.2 0-.686.514-1.2 1.086-1.2H18.4V9.714C18.4 6 15.657 3.03 12.229 3.03c-3.429 0-6.115 3.028-6.115 6.685v4.743c0 .629-.514 1.2-1.085 1.2-.572 0-1.086-.514-1.086-1.2V9.714c0-4.971 3.714-9.028 8.343-9.028 4.628 0 8.285 4.057 8.285 9.028v8.743c0 1.029-.8 1.886-1.714 1.886z" fill="#BDBDBD"/><path d="M14.743 21.314h-1.657A2.537 2.537 0 0 1 10.57 18.8a2.537 2.537 0 0 1 2.515-2.514h1.657a2.537 2.537 0 0 1 2.514 2.514 2.5 2.5 0 0 1-2.514 2.514z" fill="#858585"/></g></svg>